<svg width="669" height="327" viewBox="0 0 669 327" fill="none" xmlns="http://www.w3.org/2000/svg">
<rect width="668.125" height="327" rx="16" fill="#000000"/>
<g clip-path="url(#clip0_5799_9123)">
<rect x="32" y="98" width="180" height="136" rx="8" fill="#252B36"/>
<mask id="path-4-inside-1_5799_9123" fill="white">
<path d="M32 98H212V138H32V98Z"/>
</mask>
<path d="M32 98H212V138H32V98Z" fill="#343A40"/>
<path d="M212 138V137H32V138V139H212V138Z" fill="#6C757D" mask="url(#path-4-inside-1_5799_9123)"/>
<path d="M51.3333 121.333H64.6667V112.167H51.3333V121.333ZM58.8333 123V124.667H62.1667V126.333H53.8333V124.667H57.1667V123H50.4932C50.0367 123 49.6667 122.626 49.6667 122.16V111.34C49.6667 110.876 50.0461 110.5 50.4932 110.5H65.5068C65.9633 110.5 66.3333 110.874 66.3333 111.34V122.16C66.3333 122.624 65.9539 123 65.5068 123H58.8333Z" fill="#C1C5CB"/>
<rect x="80" y="112" width="67" height="12" rx="6" fill="#C1C5CB"/>
<circle cx="186" cy="118" r="10" fill="#C1C5CB"/>
<rect x="32" y="138" width="180" height="32" rx="8" fill="#252B36"/>
<rect x="48.3333" y="148" width="39" height="12" rx="6" fill="#6C757D"/>
<rect x="124" y="148" width="58" height="12" rx="6" fill="#C1C5CB"/>
<rect x="32" y="170" width="180" height="32" rx="8" fill="#252B36"/>
<rect x="48" y="180" width="60" height="12" rx="6" fill="#6C757D"/>
<rect x="124" y="180" width="41" height="12" rx="6" fill="#C1C5CB"/>
<rect x="32" y="202" width="180" height="32" rx="8" fill="#252B36"/>
<rect x="48.3333" y="212" width="51" height="12" rx="6" fill="#6C757D"/>
<rect x="124" y="212" width="68" height="12" rx="6" fill="#C1C5CB"/>
</g>
<rect x="32.5" y="98.5" width="179" height="135" rx="7.5" stroke="#6C757D"/>
<g clip-path="url(#clip1_5799_9123)">
<rect width="288" height="40" transform="translate(298.125 16)" fill="#252B36"/>
<path d="M317.459 39.3333H330.792V30.1667H317.459V39.3333ZM324.959 41V42.6667H328.292V44.3333H319.959V42.6667H323.292V41H316.619C316.162 41 315.792 40.6259 315.792 40.1604V29.3396C315.792 28.8759 316.172 28.5 316.619 28.5H331.632C332.089 28.5 332.459 28.8741 332.459 29.3396V40.1604C332.459 40.6241 332.079 41 331.632 41H324.959Z" fill="#C1C5CB"/>
<path d="M346.57 41.1392C345.907 41.1392 345.314 41.0149 344.79 40.7663C344.267 40.5144 343.851 40.1697 343.542 39.7322C343.237 39.2947 343.075 38.7943 343.055 38.2308H344.845C344.878 38.6484 345.059 38.9898 345.387 39.255C345.715 39.5168 346.109 39.6477 346.57 39.6477C346.931 39.6477 347.253 39.5649 347.535 39.3991C347.816 39.2334 348.038 39.0031 348.201 38.7081C348.363 38.4131 348.443 38.0767 348.439 37.6989C348.443 37.3144 348.361 36.973 348.196 36.6747C348.03 36.3764 347.803 36.1428 347.515 35.9737C347.226 35.8014 346.895 35.7152 346.52 35.7152C346.215 35.7119 345.915 35.7682 345.62 35.8842C345.325 36.0002 345.092 36.1527 344.919 36.3416L343.254 36.0682L343.786 30.8182H349.692V32.3594H345.312L345.019 35.0589H345.079C345.267 34.8369 345.534 34.6529 345.879 34.5071C346.224 34.358 346.602 34.2834 347.013 34.2834C347.629 34.2834 348.179 34.4292 348.663 34.7209C349.147 35.0092 349.528 35.407 349.807 35.9141C350.085 36.4212 350.224 37.0012 350.224 37.6541C350.224 38.3269 350.068 38.9268 349.757 39.4538C349.449 39.9775 349.019 40.3902 348.469 40.6918C347.922 40.9901 347.289 41.1392 346.57 41.1392Z" fill="#C1C5CB"/>
<rect x="363.125" y="30" width="58" height="12" rx="6" fill="#C1C5CB"/>
<rect x="474.125" y="30" width="64" height="12" rx="6" fill="#6C757D"/>
<circle cx="560.125" cy="36" r="10" fill="#C1C5CB"/>
</g>
<rect x="298.625" y="16.5" width="287" height="39" rx="7.5" stroke="#6C757D" stroke-dasharray="4 4"/>
<g clip-path="url(#clip2_5799_9123)">
<rect width="288" height="40" transform="translate(298.125 271)" fill="#252B36"/>
<path d="M317.459 294.333H330.792V285.167H317.459V294.333ZM324.959 296V297.667H328.292V299.333H319.959V297.667H323.292V296H316.619C316.162 296 315.792 295.626 315.792 295.16V284.34C315.792 283.876 316.172 283.5 316.619 283.5H331.632C332.089 283.5 332.459 283.874 332.459 284.34V295.16C332.459 295.624 332.079 296 331.632 296H324.959Z" fill="#C1C5CB"/>
<path d="M346.65 296.139C345.91 296.139 345.254 296.015 344.681 295.766C344.111 295.518 343.663 295.178 343.338 294.747C343.017 294.313 342.858 293.821 342.861 293.271C342.858 292.843 342.951 292.45 343.14 292.092C343.329 291.734 343.584 291.436 343.905 291.197C344.23 290.955 344.591 290.801 344.989 290.735V290.665C344.465 290.549 344.041 290.283 343.716 289.865C343.395 289.444 343.236 288.959 343.239 288.408C343.236 287.885 343.382 287.417 343.677 287.006C343.972 286.595 344.376 286.272 344.89 286.037C345.403 285.798 345.99 285.679 346.65 285.679C347.303 285.679 347.884 285.798 348.395 286.037C348.908 286.272 349.313 286.595 349.608 287.006C349.906 287.417 350.055 287.885 350.055 288.408C350.055 288.959 349.891 289.444 349.563 289.865C349.238 290.283 348.819 290.549 348.305 290.665V290.735C348.703 290.801 349.061 290.955 349.379 291.197C349.7 291.436 349.956 291.734 350.145 292.092C350.337 292.45 350.433 292.843 350.433 293.271C350.433 293.821 350.271 294.313 349.946 294.747C349.621 295.178 349.173 295.518 348.603 295.766C348.037 296.015 347.385 296.139 346.65 296.139ZM346.65 294.717C347.031 294.717 347.362 294.653 347.644 294.523C347.926 294.391 348.144 294.205 348.3 293.967C348.456 293.728 348.535 293.453 348.539 293.141C348.535 292.817 348.451 292.53 348.285 292.281C348.123 292.029 347.899 291.832 347.614 291.69C347.332 291.547 347.011 291.476 346.65 291.476C346.285 291.476 345.96 291.547 345.675 291.69C345.39 291.832 345.165 292.029 344.999 292.281C344.837 292.53 344.757 292.817 344.76 293.141C344.757 293.453 344.833 293.728 344.989 293.967C345.145 294.202 345.364 294.386 345.645 294.518C345.93 294.651 346.265 294.717 346.65 294.717ZM346.65 290.079C346.961 290.079 347.236 290.016 347.475 289.89C347.717 289.764 347.907 289.588 348.047 289.363C348.186 289.138 348.257 288.877 348.26 288.582C348.257 288.291 348.187 288.036 348.052 287.817C347.916 287.595 347.727 287.424 347.485 287.305C347.243 287.182 346.964 287.121 346.65 287.121C346.328 287.121 346.045 287.182 345.799 287.305C345.557 287.424 345.369 287.595 345.233 287.817C345.1 288.036 345.035 288.291 345.039 288.582C345.035 288.877 345.102 289.138 345.238 289.363C345.377 289.585 345.567 289.761 345.809 289.89C346.055 290.016 346.335 290.079 346.65 290.079Z" fill="#C1C5CB"/>
<rect x="364.125" y="285" width="71" height="12" rx="6" fill="#C1C5CB"/>
<rect x="474.125" y="285" width="64" height="12" rx="6" fill="#6C757D"/>
<circle cx="560.125" cy="291" r="10" fill="#C1C5CB"/>
</g>
<rect x="298.625" y="271.5" width="287" height="39" rx="7.5" stroke="#6C757D" stroke-dasharray="4 4"/>
<g clip-path="url(#clip3_5799_9123)">
<rect x="348.125" y="82" width="288" height="168" rx="8" fill="#252B36"/>
<mask id="path-34-inside-2_5799_9123" fill="white">
<path d="M348.125 82H636.125V122H348.125V82Z"/>
</mask>
<path d="M348.125 82H636.125V122H348.125V82Z" fill="#252B36"/>
<path d="M636.125 122V121H348.125V122V123H636.125V122Z" fill="#6C757D" mask="url(#path-34-inside-2_5799_9123)"/>
<path d="M367.459 105.333H380.792V96.1667H367.459V105.333ZM374.959 107V108.667H378.292V110.333H369.959V108.667H373.292V107H366.619C366.162 107 365.792 106.626 365.792 106.16V95.3396C365.792 94.8759 366.172 94.5 366.619 94.5H381.632C382.089 94.5 382.459 94.8741 382.459 95.3396V106.16C382.459 106.624 382.079 107 381.632 107H374.959Z" fill="#C1C5CB"/>
<path d="M392.846 105.111V103.644L397.167 96.8182H398.39V98.9062H397.644L394.736 103.515V103.594H400.766V105.111H392.846ZM397.704 107V104.663L397.723 104.007V96.8182H399.463V107H397.704Z" fill="#C1C5CB"/>
<rect x="414.125" y="96" width="52" height="12" rx="6" fill="#C1C5CB"/>
<rect x="524.125" y="96" width="64" height="12" rx="6" fill="#6C757D"/>
<circle cx="610.125" cy="102" r="10" fill="#C1C5CB"/>
<rect x="348.125" y="122" width="288" height="32" rx="8" fill="#252B36"/>
<rect x="364.125" y="132" width="93" height="12" rx="6" fill="#6C757D"/>
<rect x="488.125" y="132" width="116" height="12" rx="6" fill="#C1C5CB"/>
<rect x="348.125" y="154" width="288" height="32" rx="8" fill="#252B36"/>
<rect x="364.125" y="164" width="60" height="12" rx="6" fill="#6C757D"/>
<rect x="488.125" y="164" width="87" height="12" rx="6" fill="#C1C5CB"/>
<rect x="348.125" y="186" width="288" height="32" rx="8" fill="#252B36"/>
<rect x="364.125" y="196" width="83" height="12" rx="6" fill="#6C757D"/>
<rect x="488.125" y="196" width="132" height="12" rx="6" fill="#C1C5CB"/>
<rect x="348.125" y="218" width="288" height="32" rx="8" fill="#252B36"/>
<rect x="364.125" y="228" width="60" height="12" rx="6" fill="#6C757D"/>
<rect x="488.125" y="228" width="104" height="12" rx="6" fill="#C1C5CB"/>
</g>
<rect x="348.625" y="82.5" width="287" height="167" rx="7.5" stroke="#6C757D" stroke-dasharray="4 4"/>
<path d="M208.459 218C208.459 219.473 209.653 220.667 211.125 220.667C212.598 220.667 213.792 219.473 213.792 218C213.792 216.527 212.598 215.333 211.125 215.333C209.653 215.333 208.459 216.527 208.459 218ZM295.459 292C295.459 293.473 296.653 294.667 298.125 294.667C299.598 294.667 300.792 293.473 300.792 292C300.792 290.527 299.598 289.333 298.125 289.333C296.653 289.333 295.459 290.527 295.459 292ZM211.125 218V218.5H236.834V218V217.5H211.125V218ZM252.834 234H252.334V276H252.834H253.334V234H252.834ZM268.834 292V292.5H298.125V292V291.5H268.834V292ZM252.834 276H252.334C252.334 285.113 259.721 292.5 268.834 292.5V292V291.5C260.273 291.5 253.334 284.56 253.334 276H252.834ZM236.834 218V218.5C245.394 218.5 252.334 225.44 252.334 234H252.834H253.334C253.334 224.887 245.946 217.5 236.834 217.5V218Z" fill="#6C757D"/>
<path d="M208.459 153C208.459 151.527 209.653 150.333 211.125 150.333C212.598 150.333 213.792 151.527 213.792 153C213.792 154.473 212.598 155.667 211.125 155.667C209.653 155.667 208.459 154.473 208.459 153ZM295.459 36C295.459 34.5272 296.653 33.3333 298.125 33.3333C299.598 33.3333 300.792 34.5272 300.792 36C300.792 37.4728 299.598 38.6667 298.125 38.6667C296.653 38.6667 295.459 37.4728 295.459 36ZM211.125 153V152.5H236.834V153V153.5H211.125V153ZM252.834 137H252.334V52H252.834H253.334V137H252.834ZM268.834 36V35.5H298.125V36V36.5H268.834V36ZM252.834 52H252.334C252.334 42.8873 259.721 35.5 268.834 35.5V36V36.5C260.273 36.5 253.334 43.4396 253.334 52H252.834ZM236.834 153V152.5C245.394 152.5 252.334 145.56 252.334 137H252.834H253.334C253.334 146.113 245.946 153.5 236.834 153.5V153Z" fill="#6C757D"/>
<path d="M208.459 187C208.459 185.527 209.653 184.333 211.125 184.333C212.598 184.333 213.792 185.527 213.792 187C213.792 188.473 212.598 189.667 211.125 189.667C209.653 189.667 208.459 188.473 208.459 187ZM345.459 102C345.459 100.527 346.653 99.3333 348.125 99.3333C349.598 99.3333 350.792 100.527 350.792 102C350.792 103.473 349.598 104.667 348.125 104.667C346.653 104.667 345.459 103.473 345.459 102ZM211.125 187V186.5H260.804V187V187.5H211.125V187ZM276.804 171H276.304V118H276.804H277.304V171H276.804ZM292.804 102V101.5H348.125V102V102.5H292.804V102ZM276.804 118H276.304C276.304 108.887 283.691 101.5 292.804 101.5V102V102.5C284.243 102.5 277.304 109.44 277.304 118H276.804ZM260.804 187V186.5C269.364 186.5 276.304 179.56 276.304 171H276.804H277.304C277.304 180.113 269.916 187.5 260.804 187.5V187Z" fill="#6C757D"/>
<defs>
<clipPath id="clip0_5799_9123">
<rect x="32" y="98" width="180" height="136" rx="8" fill="white"/>
</clipPath>
<clipPath id="clip1_5799_9123">
<rect x="298.125" y="16" width="288" height="40" rx="8" fill="white"/>
</clipPath>
<clipPath id="clip2_5799_9123">
<rect x="298.125" y="271" width="288" height="40" rx="8" fill="white"/>
</clipPath>
<clipPath id="clip3_5799_9123">
<rect x="348.125" y="82" width="288" height="168" rx="8" fill="white"/>
</clipPath>
</defs>
</svg>
