<svg width="670" height="327" viewBox="0 0 670 327" fill="none" xmlns="http://www.w3.org/2000/svg">
<rect x="0.937256" width="668.125" height="327" rx="16" fill="#F7F7F9"/>
<g clip-path="url(#clip0_5733_16989)">
<mask id="path-4-inside-1_5733_16989" fill="white">
<path d="M32.9373 98H212.937V138H32.9373V98Z"/>
</mask>
<path d="M32.9373 98H212.937V138H32.9373V98Z" fill="#FAFAFA"/>
<path d="M212.937 138V137H32.9373V138V139H212.937V138Z" fill="#E1E3E5" mask="url(#path-4-inside-1_5733_16989)"/>
<path d="M52.2706 121.333H65.6039V112.167H52.2706V121.333ZM59.7706 123V124.667H63.1039V126.333H54.7706V124.667H58.1039V123H51.4304C50.974 123 50.6039 122.626 50.6039 122.16V111.34C50.6039 110.876 50.9834 110.5 51.4304 110.5H66.4441C66.9006 110.5 67.2706 110.874 67.2706 111.34V122.16C67.2706 122.624 66.8912 123 66.4441 123H59.7706Z" fill="#A3ACB5"/>
<rect x="80.9373" y="112" width="67" height="12" rx="6" fill="#C1C5CB"/>
<circle cx="186.937" cy="118" r="10" fill="#C1C5CB"/>
<rect x="32.9373" y="138" width="180" height="32" rx="8" fill="white"/>
<rect x="49.2705" y="148" width="39" height="12" rx="6" fill="#E1E3E5"/>
<rect x="124.937" y="148" width="58" height="12" rx="6" fill="#C1C5CB"/>
<rect x="32.9373" y="170" width="180" height="32" rx="8" fill="white"/>
<rect x="48.9373" y="180" width="60" height="12" rx="6" fill="#E1E3E5"/>
<rect x="124.937" y="180" width="41" height="12" rx="6" fill="#C1C5CB"/>
<rect x="32.9373" y="202" width="180" height="32" rx="8" fill="white"/>
<rect x="49.2705" y="212" width="51" height="12" rx="6" fill="#E1E3E5"/>
<rect x="124.937" y="212" width="68" height="12" rx="6" fill="#C1C5CB"/>
</g>
<rect x="33.4373" y="98.5" width="179" height="135" rx="7.5" stroke="#C1C5CB"/>
<g clip-path="url(#clip1_5733_16989)">
<rect width="288" height="40" transform="translate(299.063 16)" fill="white"/>
<path d="M318.396 39.3333H331.729V30.1667H318.396V39.3333ZM325.896 41V42.6667H329.229V44.3333H320.896V42.6667H324.229V41H317.556C317.099 41 316.729 40.6259 316.729 40.1604V29.3396C316.729 28.8759 317.109 28.5 317.556 28.5H332.57C333.026 28.5 333.396 28.8741 333.396 29.3396V40.1604C333.396 40.6241 333.017 41 332.57 41H325.896Z" fill="#A3ACB5"/>
<path d="M347.507 41.1392C346.844 41.1392 346.251 41.0149 345.728 40.7663C345.204 40.5144 344.788 40.1697 344.48 39.7322C344.175 39.2947 344.012 38.7943 343.992 38.2308H345.782C345.815 38.6484 345.996 38.9898 346.324 39.255C346.652 39.5168 347.047 39.6477 347.507 39.6477C347.869 39.6477 348.19 39.5649 348.472 39.3991C348.754 39.2334 348.976 39.0031 349.138 38.7081C349.3 38.4131 349.38 38.0767 349.377 37.6989C349.38 37.3144 349.299 36.973 349.133 36.6747C348.967 36.3764 348.74 36.1428 348.452 35.9737C348.164 35.8014 347.832 35.7152 347.458 35.7152C347.153 35.7119 346.853 35.7682 346.558 35.8842C346.263 36.0002 346.029 36.1527 345.857 36.3416L344.191 36.0682L344.723 30.8182H350.63V32.3594H346.25L345.956 35.0589H346.016C346.205 34.8369 346.472 34.6529 346.816 34.5071C347.161 34.358 347.539 34.2834 347.95 34.2834C348.566 34.2834 349.116 34.4292 349.6 34.7209C350.084 35.0092 350.465 35.407 350.744 35.9141C351.022 36.4212 351.161 37.0012 351.161 37.6541C351.161 38.3269 351.006 38.9268 350.694 39.4538C350.386 39.9775 349.957 40.3902 349.406 40.6918C348.86 40.9901 348.227 41.1392 347.507 41.1392Z" fill="#A3ACB5"/>
<rect x="364.063" y="30" width="58" height="12" rx="6" fill="#C1C5CB"/>
<rect x="475.063" y="30" width="64" height="12" rx="6" fill="#E1E3E5"/>
<circle cx="561.063" cy="36" r="10" fill="#C1C5CB"/>
</g>
<rect x="299.563" y="16.5" width="287" height="39" rx="7.5" stroke="#C1C5CB" stroke-dasharray="4 4"/>
<g clip-path="url(#clip2_5733_16989)">
<rect width="288" height="40" transform="translate(299.063 271)" fill="white"/>
<path d="M318.396 294.333H331.729V285.167H318.396V294.333ZM325.896 296V297.667H329.229V299.333H320.896V297.667H324.229V296H317.556C317.099 296 316.729 295.626 316.729 295.16V284.34C316.729 283.876 317.109 283.5 317.556 283.5H332.57C333.026 283.5 333.396 283.874 333.396 284.34V295.16C333.396 295.624 333.017 296 332.57 296H325.896Z" fill="#A3ACB5"/>
<path d="M347.587 296.139C346.848 296.139 346.192 296.015 345.618 295.766C345.048 295.518 344.601 295.178 344.276 294.747C343.954 294.313 343.795 293.821 343.799 293.271C343.795 292.843 343.888 292.45 344.077 292.092C344.266 291.734 344.521 291.436 344.843 291.197C345.167 290.955 345.529 290.801 345.926 290.735V290.665C345.403 290.549 344.978 290.283 344.654 289.865C344.332 289.444 344.173 288.959 344.176 288.408C344.173 287.885 344.319 287.417 344.614 287.006C344.909 286.595 345.313 286.272 345.827 286.037C346.341 285.798 346.927 285.679 347.587 285.679C348.24 285.679 348.822 285.798 349.332 286.037C349.846 286.272 350.25 286.595 350.545 287.006C350.843 287.417 350.992 287.885 350.992 288.408C350.992 288.959 350.828 289.444 350.5 289.865C350.175 290.283 349.756 290.549 349.242 290.665V290.735C349.64 290.801 349.998 290.955 350.316 291.197C350.638 291.436 350.893 291.734 351.082 292.092C351.274 292.45 351.37 292.843 351.37 293.271C351.37 293.821 351.208 294.313 350.883 294.747C350.558 295.178 350.111 295.518 349.541 295.766C348.974 296.015 348.323 296.139 347.587 296.139ZM347.587 294.717C347.968 294.717 348.299 294.653 348.581 294.523C348.863 294.391 349.082 294.205 349.237 293.967C349.393 293.728 349.473 293.453 349.476 293.141C349.473 292.817 349.388 292.53 349.223 292.281C349.06 292.029 348.836 291.832 348.551 291.69C348.27 291.547 347.948 291.476 347.587 291.476C347.222 291.476 346.897 291.547 346.612 291.69C346.327 291.832 346.102 292.029 345.936 292.281C345.774 292.53 345.694 292.817 345.698 293.141C345.694 293.453 345.771 293.728 345.926 293.967C346.082 294.202 346.301 294.386 346.583 294.518C346.868 294.651 347.202 294.717 347.587 294.717ZM347.587 290.079C347.898 290.079 348.174 290.016 348.412 289.89C348.654 289.764 348.845 289.588 348.984 289.363C349.123 289.138 349.194 288.877 349.198 288.582C349.194 288.291 349.125 288.036 348.989 287.817C348.853 287.595 348.664 287.424 348.422 287.305C348.18 287.182 347.902 287.121 347.587 287.121C347.265 287.121 346.982 287.182 346.737 287.305C346.495 287.424 346.306 287.595 346.17 287.817C346.037 288.036 345.973 288.291 345.976 288.582C345.973 288.877 346.039 289.138 346.175 289.363C346.314 289.585 346.505 289.761 346.747 289.89C346.992 290.016 347.272 290.079 347.587 290.079Z" fill="#A3ACB5"/>
<rect x="365.063" y="285" width="71" height="12" rx="6" fill="#C1C5CB"/>
<rect x="475.063" y="285" width="64" height="12" rx="6" fill="#E1E3E5"/>
<circle cx="561.063" cy="291" r="10" fill="#C1C5CB"/>
</g>
<rect x="299.563" y="271.5" width="287" height="39" rx="7.5" stroke="#C1C5CB" stroke-dasharray="4 4"/>
<g clip-path="url(#clip3_5733_16989)">
<mask id="path-34-inside-2_5733_16989" fill="white">
<path d="M349.063 82H637.063V122H349.063V82Z"/>
</mask>
<path d="M349.063 82H637.063V122H349.063V82Z" fill="white"/>
<path d="M637.063 122V121H349.063V122V123H637.063V122Z" fill="#E1E3E5" mask="url(#path-34-inside-2_5733_16989)"/>
<path d="M368.396 105.333H381.729V96.1667H368.396V105.333ZM375.896 107V108.667H379.229V110.333H370.896V108.667H374.229V107H367.556C367.099 107 366.729 106.626 366.729 106.16V95.3396C366.729 94.8759 367.109 94.5 367.556 94.5H382.57C383.026 94.5 383.396 94.8741 383.396 95.3396V106.16C383.396 106.624 383.017 107 382.57 107H375.896Z" fill="#A3ACB5"/>
<path d="M393.784 105.111V103.644L398.104 96.8182H399.327V98.9062H398.581L395.673 103.515V103.594H401.703V105.111H393.784ZM398.641 107V104.663L398.661 104.007V96.8182H400.401V107H398.641Z" fill="#A3ACB5"/>
<rect x="415.063" y="96" width="52" height="12" rx="6" fill="#C1C5CB"/>
<rect x="525.063" y="96" width="64" height="12" rx="6" fill="#E1E3E5"/>
<circle cx="611.063" cy="102" r="10" fill="#C1C5CB"/>
<rect x="349.063" y="122" width="288" height="32" rx="8" fill="white"/>
<rect x="365.063" y="132" width="93" height="12" rx="6" fill="#E1E3E5"/>
<rect x="489.063" y="132" width="116" height="12" rx="6" fill="#C1C5CB"/>
<rect x="349.063" y="154" width="288" height="32" rx="8" fill="white"/>
<rect x="365.063" y="164" width="60" height="12" rx="6" fill="#E1E3E5"/>
<rect x="489.063" y="164" width="87" height="12" rx="6" fill="#C1C5CB"/>
<rect x="349.063" y="186" width="288" height="32" rx="8" fill="white"/>
<rect x="365.063" y="196" width="83" height="12" rx="6" fill="#E1E3E5"/>
<rect x="489.063" y="196" width="132" height="12" rx="6" fill="#C1C5CB"/>
<rect x="349.063" y="218" width="288" height="32" rx="8" fill="white"/>
<rect x="365.063" y="228" width="60" height="12" rx="6" fill="#E1E3E5"/>
<rect x="489.063" y="228" width="104" height="12" rx="6" fill="#C1C5CB"/>
</g>
<rect x="349.563" y="82.5" width="287" height="167" rx="7.5" stroke="#C1C5CB" stroke-dasharray="4 4"/>
<path d="M209.396 218C209.396 219.473 210.59 220.667 212.063 220.667C213.536 220.667 214.729 219.473 214.729 218C214.729 216.527 213.536 215.333 212.063 215.333C210.59 215.333 209.396 216.527 209.396 218ZM296.396 292C296.396 293.473 297.59 294.667 299.063 294.667C300.536 294.667 301.729 293.473 301.729 292C301.729 290.527 300.536 289.333 299.063 289.333C297.59 289.333 296.396 290.527 296.396 292ZM212.063 218V218.5H237.771V218V217.5H212.063V218ZM253.771 234H253.271V276H253.771H254.271V234H253.771ZM269.771 292V292.5H299.063V292V291.5H269.771V292ZM253.771 276H253.271C253.271 285.113 260.658 292.5 269.771 292.5V292V291.5C261.21 291.5 254.271 284.56 254.271 276H253.771ZM237.771 218V218.5C246.331 218.5 253.271 225.44 253.271 234H253.771H254.271C254.271 224.887 246.884 217.5 237.771 217.5V218Z" fill="#C1C5CB"/>
<path d="M209.396 153C209.396 151.527 210.59 150.333 212.063 150.333C213.536 150.333 214.729 151.527 214.729 153C214.729 154.473 213.536 155.667 212.063 155.667C210.59 155.667 209.396 154.473 209.396 153ZM296.396 36C296.396 34.5272 297.59 33.3333 299.063 33.3333C300.536 33.3333 301.729 34.5272 301.729 36C301.729 37.4728 300.536 38.6667 299.063 38.6667C297.59 38.6667 296.396 37.4728 296.396 36ZM212.063 153V152.5H237.771V153V153.5H212.063V153ZM253.771 137H253.271V52H253.771H254.271V137H253.771ZM269.771 36V35.5H299.063V36V36.5H269.771V36ZM253.771 52H253.271C253.271 42.8873 260.658 35.5 269.771 35.5V36V36.5C261.21 36.5 254.271 43.4396 254.271 52H253.771ZM237.771 153V152.5C246.331 152.5 253.271 145.56 253.271 137H253.771H254.271C254.271 146.113 246.884 153.5 237.771 153.5V153Z" fill="#C1C5CB"/>
<path d="M209.396 187C209.396 185.527 210.59 184.333 212.063 184.333C213.536 184.333 214.729 185.527 214.729 187C214.729 188.473 213.536 189.667 212.063 189.667C210.59 189.667 209.396 188.473 209.396 187ZM346.396 102C346.396 100.527 347.59 99.3333 349.063 99.3333C350.536 99.3333 351.729 100.527 351.729 102C351.729 103.473 350.536 104.667 349.063 104.667C347.59 104.667 346.396 103.473 346.396 102ZM212.063 187V186.5H261.741V187V187.5H212.063V187ZM277.741 171H277.241V118H277.741H278.241V171H277.741ZM293.741 102V101.5H349.063V102V102.5H293.741V102ZM277.741 118H277.241C277.241 108.887 284.628 101.5 293.741 101.5V102V102.5C285.181 102.5 278.241 109.44 278.241 118H277.741ZM261.741 187V186.5C270.302 186.5 277.241 179.56 277.241 171H277.741H278.241C278.241 180.113 270.854 187.5 261.741 187.5V187Z" fill="#C1C5CB"/>
<defs>
<clipPath id="clip0_5733_16989">
<rect x="32.9373" y="98" width="180" height="136" rx="8" fill="white"/>
</clipPath>
<clipPath id="clip1_5733_16989">
<rect x="299.063" y="16" width="288" height="40" rx="8" fill="white"/>
</clipPath>
<clipPath id="clip2_5733_16989">
<rect x="299.063" y="271" width="288" height="40" rx="8" fill="white"/>
</clipPath>
<clipPath id="clip3_5733_16989">
<rect x="349.063" y="82" width="288" height="168" rx="8" fill="white"/>
</clipPath>
</defs>
</svg>
