<svg width="80" height="80" viewBox="0 0 80 80" fill="none" xmlns="http://www.w3.org/2000/svg">
<g id="Logo=Kubernetes, Style=Transparent, Category=WebServices" clip-path="url(#clip0_11491_155718)">
<path id="Vector" d="M25.5424 78.7233C24.6165 78.7258 23.7022 78.5121 22.8687 78.0982C22.0351 77.6843 21.3042 77.0811 20.7312 76.3342L2.6272 53.2259C2.03451 52.4779 1.61858 51.5991 1.41205 50.6584C1.20552 49.7176 1.21399 48.7406 1.4368 47.8038L7.9024 18.9677C8.10728 18.0356 8.51637 17.1637 9.09859 16.4183C9.6808 15.673 10.4208 15.0737 11.2624 14.6661L37.44 1.80569C38.2777 1.38614 39.1975 1.16809 40.1296 1.16809C41.0616 1.16809 41.9815 1.38614 42.8192 1.80569L68.9936 14.6069C69.8355 15.0145 70.5757 15.614 71.158 16.3597C71.7403 17.1054 72.1492 17.9777 72.3536 18.9102L78.8208 47.7545C79.0317 48.6919 79.0344 49.6661 78.8286 50.6048C78.6228 51.5435 78.2138 52.4225 77.632 53.1766L59.52 76.28C58.9408 77.017 58.2102 77.6135 57.3804 78.0268C56.5506 78.4401 55.6422 78.66 54.72 78.6707L25.5456 78.7233H25.5424Z" fill="#326DE6"/>
<path id="Vector_2" d="M40.0766 2.49584C40.8092 2.4956 41.5331 2.65874 42.1982 2.97398L68.3726 15.7769C69.7166 16.467 70.7518 17.7486 71.0622 19.2273L77.5278 48.0716C77.7072 48.826 77.7118 49.6131 77.5412 50.3696C77.3706 51.1261 77.0295 51.8309 76.5454 52.4274L58.4414 75.5374C57.9772 76.1365 57.3867 76.6198 56.7144 76.9507C56.042 77.2817 55.3054 77.4518 54.5598 77.4483H25.5422C24.7969 77.4517 24.0605 77.2815 23.3884 76.9505C22.7164 76.6196 22.1262 76.1364 21.6622 75.5374L3.5582 52.4291C3.09601 51.82 2.76857 51.1148 2.59864 50.3626C2.42871 49.6104 2.42037 48.8291 2.5742 48.0733L9.0414 19.229C9.20702 18.4827 9.53504 17.7845 10.0008 17.187C10.4666 16.5894 11.0582 16.1079 11.731 15.7785L37.9054 2.92304C38.5986 2.64909 39.3339 2.50496 40.0766 2.49749V2.49584ZM40.0766 0C38.9708 0.0126891 37.8802 0.265802 36.8766 0.742671L10.6958 13.5981C9.68563 14.0849 8.79702 14.8021 8.09772 15.6951C7.39842 16.5881 6.90689 17.6332 6.6606 18.7508L0.194998 47.5951C-0.0635844 48.7165 -0.0682324 49.8838 0.181412 51.0072C0.431056 52.1307 0.928339 53.1803 1.635 54.0755L19.7486 77.1838C20.4372 78.0672 21.3114 78.7792 22.3058 79.2666C23.3002 79.754 24.3891 80.0042 25.491 79.9984H54.5086C55.6105 80.0042 56.6994 79.754 57.6938 79.2666C58.6882 78.7792 59.5624 78.0672 60.251 77.1838L78.3566 54.0755C79.0657 53.1817 79.5646 52.1321 79.8143 51.0082C80.0641 49.8842 80.058 48.7163 79.7966 47.5951L73.339 18.7508C73.0927 17.6332 72.6012 16.5881 71.9019 15.6951C71.2026 14.8021 70.314 14.0849 69.3038 13.5981L43.2334 0.742671C42.2472 0.259562 41.1693 0.00597335 40.0766 0Z" fill="white"/>
<path id="Vector_3" d="M66.304 45.7894H66.2512C66.2 45.7894 66.1488 45.7894 66.1488 45.7368C66.0448 45.7368 65.9408 45.6826 65.8384 45.6826C65.5131 45.6244 65.1843 45.5892 64.8544 45.5775C64.6805 45.5838 64.5066 45.5656 64.3376 45.5232H64.2864C63.2 45.4181 62.32 45.3113 61.4928 45.0451C61.3641 44.993 61.2471 44.9143 61.1492 44.814C61.0512 44.7137 60.9743 44.5938 60.9232 44.4618C60.9232 44.4076 60.872 44.4076 60.872 44.355L60.2 44.143C60.5186 41.6442 60.3966 39.1068 59.84 36.6522C59.276 34.1775 58.296 31.8227 56.944 29.6938L57.4608 29.2157V29.1089C57.4515 28.8199 57.5435 28.5372 57.72 28.312C58.3408 27.7287 59.1168 27.2505 60.048 26.6689C60.208 26.5637 60.3584 26.5046 60.5136 26.4043C60.8176 26.2472 61.1111 26.0694 61.392 25.872C61.4448 25.8194 61.552 25.7668 61.6512 25.66C61.7024 25.6075 61.7552 25.6074 61.7552 25.5532C62.4784 24.9157 62.6336 23.8543 62.1168 23.1625C61.9761 22.977 61.7953 22.8277 61.5887 22.7265C61.382 22.6252 61.1553 22.5748 60.9264 22.5793C60.5126 22.5909 60.1136 22.7396 59.7888 23.0032L59.6848 23.11C59.5824 23.1625 59.5248 23.2743 59.4272 23.3219C59.1891 23.5563 58.9648 23.8048 58.7552 24.0662C58.6476 24.2032 58.5259 24.3278 58.392 24.4376C57.7692 25.1477 57.0746 25.7877 56.32 26.3468C56.1845 26.4487 56.0222 26.506 55.8544 26.5111C55.7483 26.5195 55.6418 26.5014 55.544 26.4586H55.44L54.8192 26.8841C54.1512 26.1694 53.4434 25.4951 52.6992 24.8648C49.582 22.3588 45.8295 20.8252 41.888 20.4465L41.8368 19.7548L41.7328 19.6496C41.5728 19.4853 41.3712 19.3309 41.3184 18.9579C41.2672 18.1084 41.3712 17.1505 41.4784 16.0907V16.0365C41.4882 15.8554 41.5233 15.6767 41.5824 15.5058C41.6336 15.187 41.6864 14.8683 41.7424 14.4969V14.0188C41.7424 13.0625 41.0176 12.2656 40.1424 12.2656C39.7103 12.2835 39.3021 12.474 39.0048 12.7963C38.8514 12.9577 38.7312 13.1491 38.6512 13.3591C38.5712 13.5691 38.5331 13.7934 38.5392 14.0188V14.4427C38.5372 14.7863 38.5913 15.1279 38.6992 15.4532C38.7504 15.6175 38.7504 15.772 38.8016 15.9839V16.0365C38.9056 17.0996 39.0608 18.0558 38.9616 18.9053C38.9104 19.2767 38.704 19.436 38.5488 19.5954L38.4448 19.7022L38.3936 20.3923C37.4556 20.4826 36.5231 20.6247 35.6 20.8179C31.6814 21.6977 28.1126 23.7713 25.36 26.7675L24.8416 26.3961H24.7392C24.6352 26.3961 24.5312 26.4487 24.4288 26.4487C24.261 26.4435 24.0986 26.3862 23.9632 26.2844C23.2896 25.8063 22.6176 25.1162 21.8928 24.3127C21.7859 24.1752 21.6646 24.0501 21.5312 23.9397C21.3211 23.6792 21.0967 23.4313 20.8592 23.197C20.808 23.1428 20.6992 23.0902 20.6 22.9834C20.5488 22.9309 20.4976 22.9309 20.4976 22.8783C20.1769 22.6059 19.7745 22.4556 19.3584 22.4527C19.1296 22.4485 18.9029 22.4992 18.6966 22.6007C18.4902 22.7023 18.3097 22.8519 18.1696 23.0377C17.6512 23.7278 17.8064 24.7908 18.5312 25.4284C18.5824 25.4284 18.5824 25.4809 18.6352 25.4809C18.7376 25.5335 18.7952 25.6452 18.8928 25.6929C19.1742 25.8903 19.4682 26.0681 19.7728 26.2253C19.9382 26.2929 20.0946 26.3818 20.2384 26.4898C21.1696 27.0747 21.9456 27.5529 22.5664 28.1329C22.824 28.399 22.824 28.6652 22.824 28.9298V29.0366L23.3424 29.5147C23.2374 29.6437 23.1501 29.7869 23.0832 29.9403C20.5069 34.1127 19.47 39.0942 20.16 43.9837L19.4864 44.1956C19.4864 44.2482 19.4352 44.2482 19.4352 44.3024C19.3158 44.558 19.1147 44.7638 18.8656 44.8857C18.0896 45.1519 17.1584 45.2587 16.072 45.3639H16.0208C15.8468 45.355 15.6726 45.3733 15.504 45.4181C15.1745 45.4298 14.8463 45.4649 14.5216 45.5232C14.4176 45.5232 14.3136 45.5775 14.2112 45.5775C14.1824 45.5731 14.153 45.5755 14.1252 45.5847C14.0975 45.5938 14.0721 45.6093 14.0512 45.63C13.12 45.842 12.5504 46.7457 12.7056 47.6017C12.8656 48.3461 13.5328 48.8242 14.3616 48.8242C14.5013 48.8328 14.6413 48.8144 14.7744 48.77C14.8272 48.77 14.8784 48.77 14.8784 48.7174C14.9824 48.7174 15.0848 48.6648 15.1888 48.6648C15.5104 48.5725 15.8224 48.4476 16.12 48.2918C16.28 48.2393 16.4304 48.1275 16.5856 48.0799H16.64C17.6224 47.7085 18.5024 47.3898 19.3296 47.283H19.4336C19.6796 47.2952 19.9153 47.3885 20.1056 47.5492C20.1584 47.5492 20.1584 47.6017 20.2096 47.6017L20.9328 47.4949C22.1825 51.4379 24.5408 54.9127 27.7104 57.4816C28.4186 58.0441 29.1614 58.5589 29.9344 59.0228L29.624 59.7129C29.624 59.7671 29.6752 59.7671 29.6752 59.8197C29.7477 59.9466 29.7944 60.0874 29.8123 60.2334C29.8301 60.3795 29.8189 60.5277 29.7792 60.6692C29.4091 61.5438 28.9585 62.3801 28.4336 63.1667V63.2192C28.3312 63.3835 28.2272 63.4854 28.1232 63.6448C27.9168 63.9093 27.7616 64.1755 27.5552 64.4943C27.4896 64.5746 27.4358 64.6643 27.3952 64.7604C27.3894 64.8005 27.3709 64.8375 27.3424 64.8656C26.9296 65.7693 27.24 66.7781 28.016 67.1495C28.2073 67.254 28.4201 67.3103 28.6368 67.3138C28.9584 67.2982 29.2706 67.197 29.5427 67.0201C29.8148 66.8433 30.0374 66.5968 30.1888 66.3049C30.1942 66.2651 30.2122 66.2281 30.24 66.1998C30.2812 66.104 30.3351 66.0144 30.4 65.9336C30.56 65.5623 30.6064 65.2961 30.7104 64.9773L30.8704 64.4992C31.232 63.4361 31.4912 62.5866 31.9568 61.844C32.1632 61.5252 32.4224 61.471 32.6288 61.3658C32.68 61.3658 32.68 61.3658 32.7328 61.3116L33.0944 60.6215C35.4053 61.5342 37.86 62.0026 40.336 62.0033C41.8517 62.0137 43.363 61.8349 44.8368 61.471C45.7464 61.2579 46.6424 60.9879 47.52 60.6626L47.8304 61.2475C47.8816 61.2475 47.8816 61.2475 47.9344 61.3001C48.0737 61.3241 48.2062 61.3794 48.3224 61.462C48.4386 61.5447 48.5355 61.6527 48.6064 61.7782C49.0208 62.5226 49.3312 63.4213 49.6928 64.4351V64.4811L49.8528 64.9592C49.9323 65.2857 50.0361 65.6054 50.1632 65.9155C50.2144 66.0223 50.2656 66.0798 50.3232 66.1817C50.3286 66.2216 50.3466 66.2585 50.3744 66.2869C50.5175 66.5855 50.7382 66.8377 51.012 67.0157C51.2859 67.1937 51.6023 67.2906 51.9264 67.2957C52.143 67.2921 52.3558 67.2358 52.5472 67.1314C52.7325 67.0343 52.8968 66.8996 53.0302 66.7356C53.1636 66.5715 53.2632 66.3814 53.3232 66.1768C53.4446 65.7352 53.4077 65.2635 53.2192 64.8475C53.2192 64.7949 53.168 64.7949 53.168 64.7424C53.1267 64.6466 53.0728 64.557 53.008 64.4762C52.8489 64.1725 52.6579 63.8876 52.4384 63.6267C52.336 63.4624 52.232 63.3605 52.128 63.2012V63.1667C51.56 62.263 51.0416 61.4661 50.784 60.6692C50.68 60.2978 50.784 60.0859 50.8352 59.8197C50.8352 59.7671 50.8864 59.7671 50.8864 59.7129L50.6288 59.0754C54.9046 56.4484 58.1036 52.3135 59.6288 47.4424L60.2496 47.5492C60.3008 47.5492 60.3008 47.4949 60.3536 47.4949C60.56 47.3898 60.7152 47.2304 61.0256 47.2304H61.1296C61.9568 47.3372 62.8368 47.6543 63.8192 48.0273H63.8704C64.0304 48.0799 64.1808 48.1916 64.336 48.2393C64.6333 48.3952 64.9453 48.5196 65.2672 48.6106C65.3712 48.6106 65.4736 48.6648 65.5776 48.6648C65.6064 48.6605 65.6357 48.6631 65.6635 48.6722C65.6912 48.6813 65.7165 48.6967 65.7376 48.7174C65.8714 48.7607 66.0119 48.7785 66.152 48.77C66.5177 48.771 66.8744 48.6535 67.1714 48.4344C67.4684 48.2152 67.6906 47.9054 67.8064 47.5492C67.8064 46.9116 67.2384 46.0704 66.3072 45.796L66.304 45.7894ZM42.3536 43.1868L40.0768 44.3024L37.8016 43.1868L37.232 40.6893L38.784 38.6716H41.3184L42.8704 40.6893L42.3536 43.1868ZM55.8544 37.6611C56.2558 39.4182 56.3779 41.2303 56.216 43.0274L48.3024 40.6893C47.9582 40.5887 47.6646 40.3566 47.4819 40.0406C47.2992 39.7246 47.2413 39.3488 47.32 38.9903C47.3704 38.7703 47.4776 38.5682 47.6304 38.4054L53.8896 32.6152C54.8028 34.1786 55.4661 35.8821 55.8544 37.6611ZM51.4064 29.4276L44.6304 34.3684C44.3432 34.5534 43.9996 34.6232 43.6655 34.5644C43.3313 34.5056 43.03 34.3223 42.8192 34.0496C42.682 33.8828 42.5923 33.6804 42.56 33.4647L42.0944 24.8073C45.6173 25.2235 48.8994 26.852 51.4064 29.4276ZM36.4048 25.0718C36.9744 24.9666 37.4912 24.8598 38.0608 24.753L37.6 33.2527C37.5821 33.6223 37.4276 33.971 37.1681 34.2278C36.9086 34.4845 36.5635 34.63 36.2032 34.6345C35.9858 34.6368 35.7716 34.5801 35.5824 34.4702L28.7024 29.4227C30.8178 27.2503 33.4906 25.7397 36.4096 25.0669L36.4048 25.0718ZM26.2144 32.6152L32.3696 38.246C32.6423 38.4878 32.8118 38.8297 32.8417 39.1983C32.8716 39.567 32.7595 39.933 32.5296 40.2177C32.3822 40.4349 32.1605 40.5868 31.9088 40.6433L23.8912 43.034C23.5645 39.397 24.3803 35.7481 26.2192 32.6218L26.2144 32.6152ZM24.8176 47.0119L33.0432 45.5857C33.3744 45.5638 33.7024 45.6642 33.9679 45.8688C34.2334 46.0734 34.419 46.3686 34.4912 46.7013C34.5526 46.9838 34.5348 47.2783 34.44 47.5508L31.2832 55.3587C28.3017 53.3758 26.0317 50.4481 24.8176 47.0201V47.0119ZM43.6976 57.5818C42.5086 57.8576 41.2941 58.0003 40.0752 58.0074C38.302 57.9969 36.5407 57.7105 34.8512 57.1579L38.9376 49.5603C39.352 49.0822 40.024 48.8702 40.5936 49.189C40.8352 49.3412 41.0459 49.5398 41.2144 49.7739L45.1968 57.1579C44.7312 57.3222 44.2144 57.4224 43.6976 57.5818ZM53.7776 50.1978C52.5077 52.2645 50.8152 54.0227 48.8176 55.3505L45.5584 47.3306C45.4772 47.0129 45.505 46.6762 45.637 46.3771C45.7689 46.0779 45.9971 45.8344 46.2832 45.6875C46.5097 45.5775 46.7574 45.5214 47.008 45.5232L55.2832 46.9576C54.9646 48.1167 54.4577 49.2121 53.784 50.1978H53.7776Z" fill="white"/>
</g>
<defs>
<clipPath id="clip0_11491_155718">
<rect width="80" height="80" fill="white"/>
</clipPath>
</defs>
</svg>
